<svg xmlns="http://www.w3.org/2000/svg" xmlns:xlink="http://www.w3.org/1999/xlink" viewBox="0 0 58.06 58.06"><defs><symbol id="Delete" data-name="Delete" viewBox="0 0 64 64"><polygon points="40.45 16.3 32 24.75 23.55 16.3 16.3 23.55 24.75 32 16.3 40.45 23.55 47.7 32 39.24 40.45 47.7 47.7 40.45 39.24 32 47.7 23.55 40.45 16.3"/><path d="M54.63,9.37a32,32,0,1,0,0,45.26A31.9,31.9,0,0,0,54.63,9.37ZM51.09,51.09A27,27,0,1,1,12.91,12.91a27,27,0,0,1,38.18,0h0a27,27,0,0,1,0,38.18Z"/></symbol></defs><title>cancel</title><g id="Layer_2" data-name="Layer 2"><g id="Edit"><use width="64" height="64" transform="scale(0.91)" xlink:href="#Delete"/></g></g></svg>