<svg xmlns="http://www.w3.org/2000/svg" viewBox="0 0 1562.59 831.52"><defs><style>.cls-1{fill:#adc499;}.cls-1,.cls-10,.cls-12,.cls-4,.cls-7{stroke:#000;}.cls-1,.cls-10,.cls-12,.cls-3,.cls-4,.cls-5,.cls-6,.cls-7,.cls-8,.cls-9{stroke-miterlimit:10;}.cls-1,.cls-10,.cls-12,.cls-3,.cls-4,.cls-6,.cls-7,.cls-8,.cls-9{stroke-width:8px;}.cls-2{fill:#fff;}.cls-3{fill:#e8ca87;}.cls-3,.cls-8{stroke:#e5cd8f;}.cls-4,.cls-5{fill:none;}.cls-5{stroke:#fff;stroke-width:9px;}.cls-11,.cls-6{fill:#8fbcd8;}.cls-6{stroke:#8fbcd8;}.cls-7{fill:#e3ace5;}.cls-8{fill:#ea948b;}.cls-9{fill:#c69c6d;stroke:#c69c6d;}.cls-10{fill:#b3b3b3;}.cls-12{fill:#bb9bd1;}</style></defs><title>Asset 1</title><g id="Layer_2" data-name="Layer 2"><g id="Overview_rollover" data-name="Overview rollover"><circle class="cls-1" cx="1109.98" cy="708.76" r="87.78"/><ellipse class="cls-2" cx="1109.91" cy="688.4" rx="5.68" ry="26.66"/><ellipse class="cls-2" cx="1095.24" cy="733.95" rx="26.66" ry="5.68" transform="translate(-142.31 1188.62) rotate(-54)"/><ellipse class="cls-2" cx="1133.89" cy="705.84" rx="26.66" ry="5.68" transform="translate(-162.62 384.94) rotate(-18)"/><ellipse cx="1124.7" cy="733.95" rx="5.68" ry="26.66" transform="translate(-216.61 801.26) rotate(-36)"/><ellipse cx="1086.06" cy="705.84" rx="5.68" ry="26.66" transform="translate(79.16 1520.63) rotate(-72)"/><circle class="cls-3" cx="784" cy="670.69" r="94.22"/><circle class="cls-4" cx="784" cy="670.69" r="94.22"/><path class="cls-5" d="M741.73,754.92A94.62,94.62,0,0,1,701,715.39"/><path class="cls-5" d="M784,576.48a94.23,94.23,0,0,1,38.64,180.17"/><ellipse class="cls-2" cx="760.09" cy="667.77" rx="5.68" ry="26.66" transform="translate(-109.88 1184.31) rotate(-72)"/><ellipse class="cls-2" cx="769.27" cy="695.89" rx="26.66" ry="5.68" transform="translate(-245.88 909.2) rotate(-54)"/><ellipse class="cls-2" cx="798.73" cy="695.89" rx="5.68" ry="26.66" transform="translate(-256.49 602.38) rotate(-36)"/><ellipse cx="783.93" cy="650.33" rx="5.68" ry="26.66"/><ellipse cx="807.92" cy="667.77" rx="26.66" ry="5.68" transform="translate(-166.81 282.34) rotate(-18)"/><circle class="cls-6" cx="927.78" cy="750" r="43.89"/><circle class="cls-4" cx="927.78" cy="750" r="43.89"/><ellipse class="cls-2" cx="927.75" cy="740.32" rx="2.7" ry="12.68"/><ellipse class="cls-2" cx="920.77" cy="761.98" rx="12.68" ry="2.7" transform="translate(-236.9 1059.02) rotate(-54)"/><ellipse class="cls-2" cx="934.78" cy="761.98" rx="2.7" ry="12.68" transform="translate(-269.35 694.98) rotate(-36)"/><ellipse class="cls-2" cx="939.15" cy="748.61" rx="12.68" ry="2.7" transform="translate(-185.37 326.85) rotate(-18)"/><ellipse cx="916.41" cy="748.61" rx="2.7" ry="12.68" transform="translate(-78.75 1388.84) rotate(-72)"/><circle class="cls-7" cx="971.8" cy="614.53" r="52.64"/><ellipse class="cls-2" cx="972.61" cy="599.42" rx="3.34" ry="15.69"/><ellipse class="cls-2" cx="958.58" cy="609.68" rx="3.34" ry="15.69" transform="translate(82.52 1332.94) rotate(-72)"/><ellipse class="cls-2" cx="963.98" cy="626.22" rx="15.69" ry="3.34" transform="translate(-109.26 1038.01) rotate(-54)"/><ellipse class="cls-2" cx="986.72" cy="609.68" rx="15.69" ry="3.34" transform="translate(-140.11 334.75) rotate(-18)"/><ellipse cx="981.31" cy="626.22" rx="3.34" ry="15.69" transform="translate(-180.67 696.4) rotate(-36)"/><circle class="cls-8" cx="546.2" cy="619.67" r="62.31"/><circle class="cls-4" cx="546.2" cy="619.67" r="62.31"/><path class="cls-5" d="M601.9,647.62a62.59,62.59,0,0,1-26.14,26.91"/><path class="cls-5" d="M483.9,619.67A62.31,62.31,0,0,1,603,594.11"/><ellipse class="cls-2" cx="544.27" cy="635.48" rx="17.63" ry="3.75" transform="translate(-228.3 956.74) rotate(-72)"/><ellipse class="cls-2" cx="562.86" cy="629.41" rx="3.75" ry="17.63" transform="translate(-277.19 714.82) rotate(-54)"/><ellipse class="cls-2" cx="562.86" cy="609.93" rx="17.63" ry="3.75" transform="translate(-251.01 447.33) rotate(-36)"/><ellipse cx="532.74" cy="619.72" rx="17.63" ry="3.75"/><ellipse cx="544.27" cy="603.85" rx="3.75" ry="17.63" transform="matrix(0.95, -0.31, 0.31, 0.95, -159.96, 197.74)"/><circle class="cls-9" cx="629.86" cy="781.09" r="45.94"/><circle class="cls-9" cx="629.86" cy="781.09" r="45.94"/><circle class="cls-9" cx="629.86" cy="781.09" r="45.94"/><path class="cls-4" d="M675.8,781.09a45.94,45.94,0,1,1-45.94-45.94A45.93,45.93,0,0,1,675.8,781.09Z"/><path class="cls-5" d="M609.25,822.15a46.08,46.08,0,0,1-19.84-19.27"/><path class="cls-5" d="M629.86,735.15A45.94,45.94,0,1,1,589.47,803"/><ellipse class="cls-2" cx="618.2" cy="779.67" rx="2.77" ry="13" transform="translate(-314.34 1126.68) rotate(-72)"/><ellipse class="cls-2" cx="622.67" cy="793.37" rx="13" ry="2.77" transform="translate(-385.18 830.79) rotate(-54)"/><ellipse class="cls-2" cx="637.04" cy="793.37" rx="2.77" ry="13" transform="translate(-344.67 525.96) rotate(-36)"/><ellipse class="cls-2" cx="641.52" cy="779.67" rx="13" ry="2.77" transform="translate(-209.53 236.4) rotate(-18)"/><ellipse cx="629.82" cy="771.16" rx="2.77" ry="13"/><circle class="cls-10" cx="558.39" cy="396.48" r="138.78"/><path class="cls-5" d="M610.52,267.86a138.22,138.22,0,0,1,70.1,62.89"/><path class="cls-5" d="M433,337a138.87,138.87,0,0,1,128.36-79.27"/><ellipse class="cls-2" cx="548.15" cy="370.23" rx="6.64" ry="31.19" transform="translate(-57.22 103.65) rotate(-10.27)"/><ellipse class="cls-2" cx="540.6" cy="425.6" rx="31.19" ry="6.64" transform="translate(-77.5 727.82) rotate(-64.27)"/><ellipse cx="579.33" cy="385.13" rx="31.19" ry="6.64" transform="translate(-113.31 320.31) rotate(-28.27)"/><ellipse cx="524.28" cy="395.25" rx="6.64" ry="31.19" transform="translate(62.09 861.59) rotate(-82.27)"/><ellipse cx="574.65" cy="419.5" rx="6.64" ry="31.19" transform="translate(-125.72 544.75) rotate(-46.27)"/><circle class="cls-1" cx="341.54" cy="692.87" r="87.78"/><ellipse class="cls-2" cx="359.43" cy="683.16" rx="26.66" ry="5.68" transform="translate(-280.68 251.71) rotate(-28.27)"/><ellipse class="cls-2" cx="312.37" cy="691.82" rx="5.68" ry="26.66" transform="matrix(0.13, -0.99, 0.99, 0.13, -415.18, 908.28)"/><ellipse class="cls-2" cx="355.43" cy="712.55" rx="5.68" ry="26.66" transform="translate(-405.15 476.81) rotate(-46.27)"/><ellipse cx="326.32" cy="717.76" rx="26.66" ry="5.68" transform="translate(-461.94 700.11) rotate(-64.27)"/><ellipse cx="332.78" cy="670.42" rx="5.68" ry="26.66" transform="translate(-114.18 70.06) rotate(-10.27)"/><circle class="cls-11" cx="220.68" cy="387.74" r="94.22"/><circle class="cls-4" cx="220.68" cy="387.74" r="94.22"/><path class="cls-5" d="M126.48,390.4A94.61,94.61,0,0,1,142,335.84"/><path class="cls-5" d="M303.66,343.12A94.23,94.23,0,0,1,163.28,462.48"/><ellipse class="cls-2" cx="211.92" cy="365.29" rx="5.68" ry="26.66" transform="translate(-61.73 43.63) rotate(-10.27)"/><ellipse class="cls-2" cx="191.51" cy="386.69" rx="5.68" ry="26.66" transform="translate(-217.43 524.44) rotate(-82.27)"/><ellipse class="cls-2" cx="205.46" cy="412.64" rx="26.66" ry="5.68" transform="translate(-255.46 418.58) rotate(-64.27)"/><ellipse cx="238.57" cy="378.03" rx="26.66" ry="5.68" transform="translate(-150.59 158.08) rotate(-28.27)"/><ellipse cx="234.58" cy="407.42" rx="5.68" ry="26.66" transform="translate(-221.98 295.28) rotate(-46.27)"/><circle class="cls-6" cx="218.92" cy="551.93" r="43.89"/><circle class="cls-4" cx="218.92" cy="551.93" r="43.89"/><ellipse class="cls-2" cx="227.43" cy="547.31" rx="12.68" ry="2.7" transform="translate(-232.09 172.99) rotate(-28.27)"/><ellipse class="cls-2" cx="205.06" cy="551.43" rx="2.7" ry="12.68" transform="translate(-368.95 680.44) rotate(-82.27)"/><ellipse class="cls-2" cx="211.69" cy="563.77" rx="12.68" ry="2.7" transform="translate(-388.08 509.71) rotate(-64.27)"/><ellipse class="cls-2" cx="225.53" cy="561.29" rx="2.7" ry="12.68" transform="translate(-335.95 336.25) rotate(-46.27)"/><ellipse cx="214.76" cy="541.26" rx="2.7" ry="12.68" transform="translate(-93.05 46.96) rotate(-10.27)"/><circle class="cls-7" cx="359.09" cy="526.53" r="52.64"/><ellipse class="cls-2" cx="372.78" cy="520.09" rx="15.69" ry="3.34" transform="translate(-201.86 238.58) rotate(-28.27)"/><ellipse class="cls-2" cx="357.1" cy="512.59" rx="3.34" ry="15.69" transform="translate(-85.66 71.87) rotate(-10.27)"/><ellipse class="cls-2" cx="345.09" cy="525.18" rx="3.34" ry="15.69" transform="translate(-221.75 796.48) rotate(-82.27)"/><ellipse class="cls-2" cx="370.43" cy="537.38" rx="3.34" ry="15.69" transform="translate(-273.95 433.57) rotate(-46.27)"/><ellipse cx="353.3" cy="540.45" rx="15.69" ry="3.34" transform="translate(-286.95 624.08) rotate(-64.27)"/><circle class="cls-8" cx="152.99" cy="154.13" r="62.31"/><circle class="cls-4" cx="152.99" cy="154.13" r="62.31"/><path class="cls-5" d="M154.75,216.43a62.61,62.61,0,0,1-36.08-10.28"/><path class="cls-5" d="M123.48,99.26a62.31,62.31,0,0,1,78.94,92.83"/><ellipse class="cls-2" cx="138.15" cy="159.92" rx="17.63" ry="3.75" transform="translate(-26.3 27.19) rotate(-10.27)"/><ellipse class="cls-2" cx="152.3" cy="173.42" rx="17.63" ry="3.75" transform="translate(-40.03 301.01) rotate(-82.27)"/><ellipse class="cls-2" cx="169.46" cy="164.19" rx="3.75" ry="17.63" transform="translate(-52.02 245.57) rotate(-64.27)"/><ellipse cx="146.57" cy="142.3" rx="3.75" ry="17.63" transform="translate(-49.91 86.39) rotate(-28.27)"/><ellipse cx="166.01" cy="144.94" rx="17.63" ry="3.75" transform="translate(-53.48 164.7) rotate(-46.27)"/><circle class="cls-9" cx="50.45" cy="304.26" r="45.94"/><circle class="cls-9" cx="50.45" cy="304.26" r="45.94"/><circle class="cls-9" cx="50.45" cy="304.26" r="45.94"/><path class="cls-4" d="M72.2,344.72a45.94,45.94,0,1,1,18.7-62.21A45.93,45.93,0,0,1,72.2,344.72Z"/><path class="cls-5" d="M4.52,305.56A46.1,46.1,0,0,1,12.1,279"/><path class="cls-5" d="M90.9,282.51A45.93,45.93,0,1,1,12,279.06"/><ellipse class="cls-2" cx="46.18" cy="293.32" rx="2.77" ry="13" transform="translate(-51.55 12.93) rotate(-10.27)"/><ellipse class="cls-2" cx="36.22" cy="303.75" rx="2.77" ry="13" transform="translate(-269.64 298.78) rotate(-82.27)"/><ellipse class="cls-2" cx="43.03" cy="316.4" rx="13" ry="2.77" transform="translate(-260.68 217.8) rotate(-64.27)"/><ellipse class="cls-2" cx="57.22" cy="313.86" rx="2.77" ry="13" transform="translate(-209.13 138.24) rotate(-46.27)"/><ellipse cx="59.17" cy="299.53" rx="13" ry="2.77" transform="translate(-134.8 63.75) rotate(-28.27)"/><circle class="cls-12" cx="901.8" cy="301.75" r="182.76"/><path class="cls-5" d="M785.13,161.07A182,182,0,0,1,901.8,119"/><path class="cls-5" d="M754.58,410.07A182.91,182.91,0,0,1,742.7,211.75"/><ellipse class="cls-2" cx="864.96" cy="297.26" rx="8.74" ry="41.07" transform="translate(314.97 1028.03) rotate(-72)"/><ellipse class="cls-2" cx="924.48" cy="340.56" rx="8.74" ry="41.07" transform="translate(-23.61 608.44) rotate(-36)"/><ellipse cx="901.69" cy="270.39" rx="8.74" ry="41.07"/><ellipse cx="879.1" cy="340.56" rx="41.07" ry="8.74" transform="translate(86.86 851.59) rotate(-54)"/><ellipse cx="938.64" cy="297.26" rx="41.07" ry="8.74" transform="translate(-45.92 304.6) rotate(-18)"/><circle class="cls-1" cx="628.46" cy="130.14" r="87.78"/><ellipse class="cls-2" cx="616.03" cy="146.26" rx="26.66" ry="5.68" transform="translate(122.49 542.87) rotate(-52.14)"/><ellipse class="cls-2" cx="655.56" cy="119.29" rx="26.66" ry="5.68" transform="translate(-7.32 186.96) rotate(-16.14)"/><ellipse class="cls-2" cx="607.79" cy="117.77" rx="5.68" ry="26.66" transform="translate(290.57 649.41) rotate(-70.14)"/><ellipse cx="632.3" cy="101.21" rx="26.66" ry="5.68" transform="translate(510.64 729.9) rotate(-88.14)"/><ellipse cx="645.55" cy="147.12" rx="5.68" ry="26.66" transform="translate(28.69 387.67) rotate(-34.14)"/><circle class="cls-3" cx="1189.93" cy="196.82" r="94.22"/><circle class="cls-4" cx="1189.93" cy="196.82" r="94.22"/><path class="cls-5" d="M1275,156.27a94.66,94.66,0,0,1,7.87,56.18"/><path class="cls-5" d="M1132.11,271.21a94.23,94.23,0,0,1,80.06-166"/><ellipse class="cls-2" cx="1207.02" cy="213.8" rx="5.68" ry="26.66" transform="translate(88.04 714.29) rotate(-34.14)"/><ellipse class="cls-2" cx="1217.03" cy="185.98" rx="26.66" ry="5.68" transform="translate(-3.72 345.69) rotate(-16.14)"/><ellipse class="cls-2" cx="1193.76" cy="167.9" rx="26.66" ry="5.68" transform="translate(987.26 1355.59) rotate(-88.14)"/><ellipse cx="1177.49" cy="212.94" rx="26.66" ry="5.68" transform="translate(286.74 1011.93) rotate(-52.14)"/><ellipse cx="1169.26" cy="184.45" rx="5.68" ry="26.66" transform="translate(598.59 1221.53) rotate(-70.14)"/><circle class="cls-6" cx="1327.47" cy="47.89" r="43.89"/><circle class="cls-4" cx="1327.47" cy="47.89" r="43.89"/><ellipse class="cls-2" cx="1321.56" cy="55.55" rx="12.68" ry="2.7" transform="translate(466.65 1064.88) rotate(-52.14)"/><ellipse class="cls-2" cx="1340.35" cy="42.73" rx="12.68" ry="2.7" transform="translate(40.96 374.33) rotate(-16.14)"/><ellipse class="cls-2" cx="1329.29" cy="34.14" rx="12.68" ry="2.7" transform="translate(1252.08 1361.62) rotate(-88.14)"/><ellipse class="cls-2" cx="1317.64" cy="42.01" rx="2.7" ry="12.68" transform="translate(830.55 1267.03) rotate(-70.14)"/><ellipse cx="1335.6" cy="55.96" rx="2.7" ry="12.68" transform="translate(198.78 759.25) rotate(-34.14)"/><circle class="cls-7" cx="343.77" cy="119.74" r="52.64"/><ellipse class="cls-2" cx="333.86" cy="131.18" rx="15.69" ry="3.34" transform="translate(25.4 314.27) rotate(-52.14)"/><ellipse class="cls-2" cx="351.24" cy="131.69" rx="3.34" ry="15.69" transform="translate(-13.37 219.83) rotate(-34.14)"/><ellipse class="cls-2" cx="357.13" cy="115.31" rx="15.69" ry="3.34" transform="translate(-17.98 103.84) rotate(-16.14)"/><ellipse class="cls-2" cx="329.02" cy="114.41" rx="3.34" ry="15.69" transform="translate(109.64 385) rotate(-70.14)"/><ellipse cx="343.44" cy="104.67" rx="15.69" ry="3.34" transform="translate(227.69 444.54) rotate(-88.14)"/><circle class="cls-8" cx="1132.83" cy="472.59" r="62.31"/><circle class="cls-4" cx="1132.83" cy="472.59" r="62.31"/><path class="cls-5" d="M1106,416.34a62.59,62.59,0,0,1,37.15-5.2"/><path class="cls-5" d="M1182,510.83a62.31,62.31,0,0,1-109.75-52.94"/><ellipse class="cls-2" cx="1144.06" cy="461.29" rx="17.63" ry="3.75" transform="translate(-61.72 721.61) rotate(-34.14)"/><ellipse class="cls-2" cx="1125.66" cy="454.68" rx="3.75" ry="17.63" transform="translate(-82.03 330.89) rotate(-16.14)"/><ellipse class="cls-2" cx="1113.7" cy="470.06" rx="3.75" ry="17.63" transform="translate(607.79 1567.94) rotate(-88.14)"/><ellipse cx="1143.49" cy="480.82" rx="3.75" ry="17.63" transform="translate(62.1 1088.57) rotate(-52.14)"/><ellipse cx="1124.65" cy="486.27" rx="17.63" ry="3.75" transform="translate(285.27 1378.87) rotate(-70.14)"/><circle class="cls-9" cx="389.36" cy="250.38" r="45.94"/><circle class="cls-9" cx="389.36" cy="250.38" r="45.94"/><circle class="cls-9" cx="389.36" cy="250.38" r="45.94"/><path class="cls-4" d="M353.09,222.19a45.93,45.93,0,1,1,8.07,64.46A45.94,45.94,0,0,1,353.09,222.19Z"/><path class="cls-5" d="M430.83,230.6a46.2,46.2,0,0,1,3.84,27.4"/><path class="cls-5" d="M361.16,286.65a45.94,45.94,0,1,1,73.52-28.77"/><ellipse class="cls-2" cx="397.69" cy="258.66" rx="2.77" ry="13" transform="translate(-76.63 267.78) rotate(-34.14)"/><ellipse class="cls-2" cx="402.57" cy="245.09" rx="13" ry="2.77" transform="translate(-52.27 121.59) rotate(-16.14)"/><ellipse class="cls-2" cx="391.23" cy="236.27" rx="13" ry="2.77" transform="translate(142.39 619.64) rotate(-88.14)"/><ellipse class="cls-2" cx="379.28" cy="244.35" rx="2.77" ry="13" transform="translate(20.62 518.07) rotate(-70.14)"/><ellipse cx="383.29" cy="258.24" rx="13" ry="2.77" transform="translate(-55.82 402.38) rotate(-52.14)"/><circle class="cls-1" cx="1470.8" cy="178.05" r="87.78"/><ellipse class="cls-2" cx="1450.71" cy="174.73" rx="5.68" ry="26.66" transform="translate(1036.76 1576.07) rotate(-80.41)"/><ellipse class="cls-2" cx="1493.18" cy="196.78" rx="5.68" ry="26.66" transform="translate(288.84 1101.15) rotate(-44.41)"/><ellipse class="cls-2" cx="1471.9" cy="153.99" rx="5.68" ry="26.66" transform="translate(-6.69 216.96) rotate(-8.41)"/><ellipse cx="1498.09" cy="167.73" rx="26.66" ry="5.68" transform="translate(81.76 683.87) rotate(-26.41)"/><ellipse cx="1463.93" cy="201.15" rx="26.66" ry="5.68" transform="translate(607.68 1405.47) rotate(-62.41)"/><circle class="cls-11" cx="1378.96" cy="493.13" r="94.22"/><circle class="cls-4" cx="1378.96" cy="493.13" r="94.22"/><path class="cls-5" d="M1455,548.84a94.51,94.51,0,0,1-45.75,33.54"/><path class="cls-5" d="M1286.06,477.44a94.23,94.23,0,0,1,184.09-8.09"/><ellipse class="cls-2" cx="1372.1" cy="516.23" rx="26.66" ry="5.68" transform="translate(279.12 1493.23) rotate(-62.41)"/><ellipse class="cls-2" cx="1401.34" cy="511.86" rx="5.68" ry="26.66" transform="translate(42.11 1126.89) rotate(-44.41)"/><ellipse class="cls-2" cx="1406.25" cy="482.81" rx="26.66" ry="5.68" transform="translate(-67.98 675.91) rotate(-26.41)"/><ellipse cx="1358.87" cy="489.81" rx="5.68" ry="26.66" transform="translate(649.55 1748.11) rotate(-80.41)"/><ellipse cx="1380.06" cy="469.07" rx="5.68" ry="26.66" transform="translate(-53.77 206.92) rotate(-8.41)"/><circle class="cls-6" cx="1481.11" cy="364.57" r="43.89"/><circle class="cls-4" cx="1481.11" cy="364.57" r="43.89"/><ellipse class="cls-2" cx="1471.56" cy="363" rx="2.7" ry="12.68" transform="translate(868.51 1753.53) rotate(-80.41)"/><ellipse class="cls-2" cx="1491.75" cy="373.48" rx="2.7" ry="12.68" transform="translate(164.78 1150.62) rotate(-44.41)"/><ellipse class="cls-2" cx="1494.09" cy="359.67" rx="12.68" ry="2.7" transform="translate(-4.04 702.13) rotate(-26.41)"/><ellipse class="cls-2" cx="1481.63" cy="353.13" rx="2.7" ry="12.68" transform="translate(-35.72 220.53) rotate(-8.41)"/><ellipse cx="1477.85" cy="375.56" rx="12.68" ry="2.7" transform="translate(460.57 1511.43) rotate(-62.41)"/><circle class="cls-7" cx="1354.86" cy="298.6" r="52.64"/><ellipse class="cls-2" cx="1340.09" cy="295.29" rx="3.34" ry="15.69" transform="translate(825.7 1567.47) rotate(-80.41)"/><ellipse class="cls-2" cx="1347.87" cy="310.84" rx="15.69" ry="3.34" transform="translate(448.15 1361.5) rotate(-62.41)"/><ellipse class="cls-2" cx="1365.09" cy="308.27" rx="3.34" ry="15.69" transform="translate(174.23 1043.35) rotate(-44.41)"/><ellipse class="cls-2" cx="1352.56" cy="283.08" rx="3.34" ry="15.69" transform="translate(-26.86 200.89) rotate(-8.41)"/><ellipse cx="1367.97" cy="291.17" rx="15.69" ry="3.34" transform="translate(13.27 638.88) rotate(-26.41)"/><circle class="cls-8" cx="1289.03" cy="719.11" r="62.31"/><circle class="cls-4" cx="1289.03" cy="719.11" r="62.31"/><path class="cls-5" d="M1325.88,668.85a62.51,62.51,0,0,1,22.17,30.26"/><path class="cls-5" d="M1278.66,780.55a62.32,62.32,0,0,1-5.35-121.74"/><ellipse class="cls-2" cx="1304.31" cy="723.65" rx="3.75" ry="17.63" transform="translate(58.89 1544.51) rotate(-62.41)"/><ellipse class="cls-2" cx="1301.42" cy="704.31" rx="17.63" ry="3.75" transform="translate(-121.11 1111.93) rotate(-44.41)"/><ellipse class="cls-2" cx="1282.21" cy="701.06" rx="3.75" ry="17.63" transform="translate(-178.01 643.51) rotate(-26.41)"/><ellipse cx="1286.84" cy="732.4" rx="17.63" ry="3.75" transform="translate(350.32 1879.26) rotate(-80.41)"/><ellipse cx="1273.12" cy="718.38" rx="17.63" ry="3.75" transform="translate(-91.39 193.96) rotate(-8.41)"/><circle class="cls-9" cx="1462.13" cy="663.51" r="45.94"/><circle class="cls-9" cx="1462.13" cy="663.51" r="45.94"/><circle class="cls-9" cx="1462.13" cy="663.51" r="45.94"/><path class="cls-4" d="M1469.79,618.22a45.94,45.94,0,1,1-53,37.64A45.93,45.93,0,0,1,1469.79,618.22Z"/><path class="cls-5" d="M1499.19,690.68A46.11,46.11,0,0,1,1476.88,707"/><path class="cls-5" d="M1416.84,655.86A45.94,45.94,0,1,1,1477,707"/><ellipse class="cls-2" cx="1458.79" cy="674.77" rx="13" ry="2.77" transform="translate(185.14 1655.19) rotate(-62.41)"/><ellipse class="cls-2" cx="1473.05" cy="672.64" rx="2.77" ry="13" transform="translate(-49.92 1223) rotate(-44.41)"/><ellipse class="cls-2" cx="1475.44" cy="658.48" rx="13" ry="2.77" transform="translate(-138.9 725.02) rotate(-26.41)"/><ellipse class="cls-2" cx="1462.67" cy="651.78" rx="2.77" ry="13" transform="translate(-79.61 220.97) rotate(-8.41)"/><ellipse cx="1452.34" cy="661.89" rx="2.77" ry="13" transform="translate(557.77 1983.69) rotate(-80.41)"/></g></g></svg>