<svg xmlns="http://www.w3.org/2000/svg" xmlns:xlink="http://www.w3.org/1999/xlink" viewBox="0 0 57.97 58.06"><defs><symbol id="To_Do" data-name="To Do" viewBox="0 0 63.9 64"><polygon points="23.98 38.75 23.98 38.75 23.98 38.75 23.98 38.75"/><polygon points="31.86 30.87 23.98 38.75 38.82 53.59 63.9 28.52 58.17 22.68 38.98 38.62 31.86 30.87"/><path d="M50,60H4V8H9.46V10.1a2,2,0,0,0,2,2H12a2,2,0,0,0,2-2V8h5.85V10.1a2,2,0,0,0,2,2h.5a2,2,0,0,0,2-2V8h5.85V10.1a2,2,0,0,0,2,2h.5a2,2,0,0,0,2-2V8H40.5V10.1a2,2,0,0,0,2,2H43a2,2,0,0,0,2-2V8h1.19L50,11.77V23l4-3.32V10.09L47.83,4H45V2a2,2,0,0,0-2-2h-.5a2,2,0,0,0-2,2V4H34.66V2a2,2,0,0,0-2-2h-.5a2,2,0,0,0-2,2V4H24.31V2a2,2,0,0,0-2-2h-.5a2,2,0,0,0-2,2V4H14V2a2,2,0,0,0-2-2h-.5a2,2,0,0,0-2,2V4H0V64H54V45.48l-4,4Z"/></symbol></defs><title>save</title><g id="Layer_2" data-name="Layer 2"><g id="Edit"><use width="63.9" height="64" transform="scale(0.91)" xlink:href="#To_Do"/></g></g></svg>