<svg xmlns="http://www.w3.org/2000/svg" viewBox="0 0 399.02 322.28"><defs><style>.cls-1{font-size:25px;font-family:OpenSans, OpenSans;}.cls-2{fill:none;stroke:#000;stroke-miterlimit:10;stroke-width:3px;}.cls-3{letter-spacing:-0.01em;}</style></defs><title>temporal</title><g id="Layer_2" data-name="Layer 2"><g id="Overview_rollover" data-name="Overview rollover"><path d="M260,41.3c-3.44-1.75-7-3.37-10.56-4.81L249,36.3,252.37,28l.47.19c3.81,1.54,7.59,3.27,11.25,5.13l.45.22-4.08,8Z"/><path d="M252.65,28.61c3.79,1.53,7.56,3.25,11.22,5.11l-3.63,7.13c-3.45-1.75-7-3.38-10.59-4.83l3-7.41m-.55-1.3-.38.92-3,7.42-.38.92.93.38c3.55,1.44,7.09,3,10.52,4.79l.89.46.45-.89,3.63-7.13.45-.9-.89-.45c-3.67-1.87-7.47-3.6-11.3-5.15l-.92-.37Z"/><path d="M332.52,138.7c-.68-3.8-1.53-7.61-2.53-11.33l-.13-.48,8.69-2.35.13.49c1.07,4,2,8,2.7,12.08l.09.49-8.86,1.59Z"/><path d="M338.2,125.16c1.06,4,2,8,2.69,12L333,138.61c-.69-3.82-1.54-7.64-2.55-11.37l7.73-2.08m.7-1.23-1,.26-7.73,2.08-1,.26.26,1c1,3.71,1.85,7.51,2.52,11.28l.18,1,1-.18,7.88-1.41,1-.18-.17-1c-.73-4.07-1.65-8.15-2.72-12.12l-.26-1Z"/><path d="M307.69,81.5c-2.3-3.09-4.77-6.12-7.34-9l-.33-.38,6.74-6,.33.38c2.73,3.08,5.36,6.31,7.81,9.59l.3.4L308,81.9Z"/><path d="M306.71,66.85c2.73,3.07,5.35,6.29,7.79,9.56l-6.41,4.79c-2.31-3.1-4.79-6.14-7.36-9l6-5.3m.09-1.41-.75.66-6,5.31-.75.66.66.75c2.56,2.88,5,5.9,7.31,9l.6.81.8-.6,6.41-4.79.8-.59-.6-.81c-2.46-3.29-5.1-6.54-7.84-9.63l-.66-.74Z"/><path d="M59,121.13l.14-.48c1.19-3.92,2.57-7.85,4.1-11.68l.19-.46,8.36,3.34-.19.47c-1.43,3.58-2.73,7.26-3.85,11l-.14.48Z"/><path d="M63.71,109.16l7.42,3c-1.43,3.59-2.73,7.29-3.86,11l-7.65-2.32c1.19-3.92,2.57-7.84,4.09-11.64m-.56-1.3-.37.93c-1.54,3.84-2.92,7.78-4.12,11.72l-.29.95,1,.29L67,124.08l1,.29.29-1c1.12-3.67,2.41-7.34,3.83-10.91l.37-.93-.92-.37-7.43-3-.93-.37Z"/><path d="M92.17,63.56l.35-.37c2.81-3,5.79-5.88,8.86-8.63l.37-.33,6,6.7-.37.34c-2.87,2.56-5.67,5.29-8.32,8.1l-.34.36Z"/><path d="M101.71,54.93l5.34,6c-2.89,2.58-5.7,5.31-8.35,8.13l-5.82-5.49c2.81-3,5.78-5.88,8.83-8.61m.08-1.41-.74.67C98,56.94,95,59.86,92.15,62.85l-.68.73.72.68L98,69.75l.73.69.68-.73c2.65-2.8,5.44-5.51,8.3-8.07l.74-.67-.67-.74-5.33-6-.67-.75Z"/><path d="M186.66,18l.5,0c3.67-.28,7.42-.42,11.12-.42H200l-.07,9h-1.67c-3.48,0-7,.13-10.44.4l-.5,0Z"/><path d="M198.28,18.06h1.24l-.06,8h-1.18c-3.49,0-7,.13-10.48.4l-.6-8c3.66-.28,7.39-.42,11.08-.42m0-1h0c-3.72,0-7.47.14-11.16.42l-1,.08.07,1,.61,8,.07,1,1-.08c3.43-.26,6.93-.39,10.4-.39h2.17v-1l.06-8v-1h-2.23Z"/><path d="M147.5,26.68l.47-.18c3.87-1.42,7.83-2.69,11.79-3.78l.48-.13,2.38,8.68-.48.13c-3.73,1-7.44,2.22-11,3.55l-.47.17Z"/><path d="M159.89,23.2,162,30.92c-3.74,1-7.47,2.22-11.1,3.56L148.14,27c3.85-1.41,7.8-2.68,11.75-3.77m.7-1.22-1,.26c-4,1.09-7.95,2.36-11.83,3.79l-.94.35.35.94L150,34.83l.34.93.94-.34c3.6-1.33,7.3-2.52,11-3.54l1-.26-.26-1-2.11-7.72-.27-1Z"/><path d="M246.65,290.52l.47-.17c3.59-1.38,7.18-2.94,10.65-4.63l.45-.21,3.93,8.09-.45.22c-3.7,1.8-7.52,3.45-11.36,4.93l-.47.18Z"/><path d="M258,286.17l3.49,7.2c-3.69,1.79-7.5,3.44-11.32,4.91l-2.86-7.47c3.61-1.38,7.21-2.94,10.69-4.64m.46-1.33-.9.43c-3.46,1.68-7,3.23-10.61,4.61l-.94.36.36.93,2.87,7.47.36.93.93-.36c3.85-1.47,7.69-3.14,11.4-4.94l.9-.44-.44-.89-3.49-7.2-.44-.9Z"/><path d="M132.29,292.54c-3.66-1.86-7.28-3.91-10.77-6.09l-.43-.26,4.76-7.64.43.26c3.27,2,6.67,4,10.1,5.72l.45.22-4.09,8Z"/><path d="M126,279.24c3.29,2.05,6.7,4,10.14,5.73l-3.63,7.13c-3.65-1.86-7.26-3.9-10.74-6.07l4.23-6.79m-.32-1.38-.52.85-4.24,6.79-.52.85.84.53c3.51,2.18,7.14,4.24,10.82,6.11l.89.45.45-.89,3.64-7.13.45-.89-.89-.45c-3.42-1.74-6.81-3.66-10.07-5.69l-.85-.53Z"/><path d="M55.15,188.61c-.72-4-1.28-8.17-1.65-12.27l0-.5,9-.81,0,.49c.35,3.85.87,7.72,1.55,11.51l.09.49-8.86,1.58Z"/><path d="M62,175.57c.36,3.86.88,7.75,1.56,11.54l-7.88,1.41c-.72-4-1.27-8.13-1.64-12.23l8-.72m.91-1.09-1,.09-8,.73-1,.09.09,1c.38,4.11.93,8.25,1.66,12.3l.17,1,1-.18,7.87-1.4,1-.18-.18-1c-.67-3.77-1.19-7.63-1.54-11.46l-.09-1Z"/><path d="M81.54,249.63c-2.46-3.3-4.8-6.75-7-10.24l-.26-.42L82,234.23l.26.42c2,3.28,4.23,6.51,6.53,9.61l.3.4L81.84,250Z"/><path d="M81.81,234.92c2,3.28,4.24,6.53,6.55,9.64l-6.42,4.77c-2.45-3.29-4.78-6.72-6.93-10.2l6.8-4.21m.32-1.38-.85.53-6.8,4.21-.85.53.53.85c2.17,3.5,4.51,7,7,10.27l.6.8.8-.59L89,245.36l.8-.6-.59-.8c-2.3-3.09-4.49-6.31-6.51-9.57l-.53-.85Z"/><path d="M298.36,255.63l.33-.37c2.62-2.84,5.14-5.82,7.5-8.87l.3-.39,7.12,5.51-.31.39c-2.52,3.26-5.21,6.44-8,9.46l-.34.36Z"/><path d="M306.58,246.7l6.33,4.89c-2.51,3.24-5.19,6.41-8,9.43l-5.89-5.42c2.62-2.85,5.15-5.84,7.52-8.9m-.18-1.41-.61.79c-2.35,3-4.86,6-7.46,8.84l-.68.74.74.68,5.88,5.41.74.68.68-.74c2.78-3,5.48-6.21,8-9.48l.61-.79-.79-.62-6.33-4.89-.79-.62Z"/><path d="M329.17,201.45l.14-.48c1.07-3.71,2-7.5,2.75-11.28l.09-.49L341,191l-.1.49c-.8,4-1.78,8.08-2.93,12l-.14.48Z"/><path d="M332.55,189.79l7.84,1.56c-.79,4-1.78,8.05-2.92,12l-7.68-2.22c1.08-3.72,2-7.53,2.76-11.32m-.79-1.17-.19,1c-.75,3.76-1.67,7.54-2.74,11.23l-.28,1,1,.28,7.68,2.22,1,.28.28-1c1.15-4,2.14-8,2.94-12.07l.2-1-1-.19-7.85-1.56-1-.19Z"/><path d="M196.84,308.34c-4.12,0-8.27-.26-12.36-.64l-.49-.05.84-9,.5.05c3.83.36,7.74.56,11.6.6h.5l-.09,9Z"/><path d="M185.28,299.24c3.85.36,7.76.56,11.64.6l-.08,8c-4.1,0-8.24-.26-12.31-.64l.75-8m-.9-1.09-.09,1-.75,8-.1,1,1,.1c4.1.38,8.27.6,12.39.64h1v-1l.08-8v-1h-1c-3.85,0-7.73-.24-11.55-.6l-1-.09Z"/><path d="M264.78,34.19c3.63,1.88,7.23,3.94,10.7,6.13l-4.27,6.77c-3.27-2.07-6.67-4-10.11-5.79l3.68-7.11m-.43-1.35-.46.89-3.67,7.11-.46.88.89.46c3.4,1.77,6.78,3.7,10,5.75l.85.53.53-.84,4.27-6.77.53-.84-.85-.54c-3.49-2.2-7.11-4.28-10.77-6.17l-.89-.46Z"/><path d="M276.35,40.87c3.44,2.21,6.84,4.59,10.09,7.09l-4.87,6.34c-3.07-2.36-6.28-4.61-9.54-6.7l4.32-6.73M276,39.49l-.54.84-4.31,6.73-.54.85.84.54c3.23,2.07,6.42,4.3,9.47,6.64l.79.61.61-.79,4.87-6.35.61-.79-.79-.61c-3.27-2.51-6.69-4.91-10.16-7.13l-.85-.54Z"/><path d="M213.88,18.89c4.07.44,8.18,1.05,12.19,1.84l-1.52,7.85c-3.8-.74-7.67-1.32-11.52-1.73l.85-8m-.89-1.1-.11,1-.85,8-.1,1,1,.1c3.83.41,7.68,1,11.44,1.72l1,.19.19-1,1.53-7.85.19-1-1-.19c-4-.78-8.17-1.4-12.28-1.84l-1-.11Z"/><path d="M287.25,48.58c3.23,2.52,6.39,5.21,9.4,8l-5.43,5.87c-2.84-2.63-5.83-5.17-8.89-7.55l4.92-6.31m-.17-1.4-.62.79-4.91,6.31-.62.79.79.61c3,2.37,6,4.89,8.82,7.49l.73.68.68-.73,5.43-5.87.68-.74-.73-.68c-3-2.8-6.22-5.5-9.47-8l-.78-.61Z"/><path d="M240,24.17c3.92,1.18,7.84,2.54,11.65,4.06l-2.95,7.43c-3.6-1.43-7.3-2.72-11-3.83l2.3-7.66m-.67-1.24-.29.95-2.3,7.67-.28.95.95.29c3.68,1.11,7.36,2.38,10.92,3.8l.93.37.37-.93,3-7.44.37-.93-.93-.36c-3.84-1.53-7.79-2.9-11.73-4.09l-1-.28Z"/><path d="M227.08,20.93c4,.8,8,1.8,12,2.95l-2.25,7.68c-3.71-1.09-7.52-2-11.31-2.79l1.58-7.84m-.78-1.18-.2,1-1.58,7.84-.2,1,1,.2c3.76.75,7.54,1.69,11.23,2.77l1,.28.28-1L240,24.16l.28-1-1-.28c-4-1.16-8-2.16-12.06-3l-1-.19Z"/><path d="M297.4,57.27c3,2.8,5.89,5.76,8.63,8.81l-5.95,5.35c-2.59-2.88-5.33-5.68-8.15-8.33l5.47-5.83m0-1.42-.69.73-5.47,5.84-.69.73.73.68c2.81,2.63,5.53,5.41,8.1,8.27l.67.74.74-.67,5.95-5.35.74-.67-.67-.74c-2.76-3.07-5.68-6-8.69-8.87l-.72-.69Z"/><path d="M328.88,100.12c1.78,3.69,3.42,7.51,4.88,11.34l-7.48,2.85c-1.38-3.62-2.93-7.23-4.61-10.71l7.21-3.48m.47-1.33-.9.43-7.21,3.48-.9.43.43.9c1.67,3.46,3.21,7,4.58,10.63l.35.94.94-.36,7.47-2.84.94-.36-.36-.93c-1.46-3.86-3.11-7.7-4.91-11.42l-.43-.9Z"/><path d="M334.12,112.43c1.43,3.83,2.71,7.78,3.8,11.73l-7.71,2.14c-1-3.73-2.24-7.46-3.59-11.08l7.5-2.79m.59-1.29-.94.35-7.5,2.79-.93.35.35.94c1.33,3.59,2.53,7.29,3.56,11l.27,1,1-.27,7.71-2.13,1-.27-.26-1c-1.11-4-2.4-8-3.83-11.82l-.35-.94Z"/><path d="M341.07,138.2c.69,4,1.22,8.15,1.57,12.24l-8,.68c-.33-3.87-.83-7.76-1.49-11.56l7.89-1.36m.81-1.15-1,.17L333,138.58l-1,.17.17,1c.65,3.78,1.14,7.64,1.47,11.47l.09,1,1-.09,8-.68,1-.08-.08-1c-.36-4.13-.89-8.27-1.59-12.32l-.17-1Z"/><path d="M322.52,88.36c2.11,3.51,4.1,7.16,5.91,10.84l-7.18,3.52c-1.71-3.47-3.59-6.92-5.58-10.23l6.85-4.13m.35-1.37-.86.52-6.86,4.12-.85.52.51.85c2,3.3,3.85,6.72,5.54,10.16l.44.9.9-.44,7.18-3.52.9-.45-.44-.89c-1.82-3.7-3.82-7.37-5.95-10.91l-.51-.86Z"/><path d="M200.55,18.08c4.1.06,8.24.3,12.31.71l-.8,8c-3.84-.39-7.76-.61-11.63-.67l.12-8m-1-1v1l-.12,8,0,1,1,0c3.85.06,7.74.28,11.55.66l1,.1.1-1,.8-8,.1-1-1-.1c-4.09-.41-8.26-.65-12.4-.71l-1,0Z"/><path d="M315.11,77.24c2.43,3.3,4.74,6.74,6.88,10.24l-6.83,4.17c-2-3.3-4.2-6.56-6.49-9.67l6.44-4.74m.22-1.4-.81.59-6.45,4.74-.8.59.59.81c2.27,3.09,4.44,6.32,6.45,9.61l.52.85.86-.52,6.82-4.17.86-.53-.53-.85c-2.15-3.52-4.48-7-6.92-10.31l-.59-.81Z"/><path d="M75.87,85.41l6.75,4.29c-2.07,3.27-4,6.66-5.82,10.09l-7.09-3.7c1.89-3.63,4-7.22,6.16-10.68M75.56,84l-.54.84c-2.21,3.48-4.29,7.1-6.2,10.76l-.46.89.89.46,7.09,3.7.89.46.46-.89c1.78-3.41,3.72-6.78,5.78-10l.53-.84-.84-.54L76.4,84.56,75.56,84Z"/><path d="M92.18,64.29,98,69.73c-2.64,2.84-5.18,5.82-7.57,8.87l-6.29-4.94c2.52-3.22,5.21-6.37,8-9.37m-.05-1.42-.69.73c-2.81,3-5.53,6.21-8.06,9.45l-.62.78.79.62,6.3,4.93.78.62.62-.79c2.37-3,4.9-6,7.52-8.79l.68-.74L98.72,69l-5.86-5.45-.73-.68Z"/><path d="M342.73,151.46c.29,3.8.44,7.67.44,11.48v.85l-8-.06V163c0-3.61-.14-7.27-.42-10.86l8-.63m.91-1.07-1,.08-8,.62-1,.08.07,1c.28,3.56.42,7.19.42,10.78v1.77h1l8,.06h1v-1.85c0-3.84-.15-7.73-.45-11.56l-.08-1Z"/><path d="M83.54,74.47l6.33,4.89c-2.37,3.07-4.63,6.27-6.73,9.52l-6.72-4.34c2.22-3.44,4.61-6.82,7.12-10.07m-.19-1.4-.61.79c-2.52,3.27-4.93,6.68-7.16,10.14l-.54.84.84.54,6.72,4.34.84.54.54-.84C86.07,86.19,88.31,83,90.66,80l.61-.79-.79-.61-6.33-4.89-.8-.61Z"/><path d="M69.24,97l7.12,3.65c-1.76,3.44-3.4,7-4.86,10.58l-7.41-3c1.55-3.8,3.28-7.57,5.15-11.21m-.44-1.34-.45.89c-1.88,3.66-3.62,7.45-5.18,11.28l-.38.92.92.38,7.41,3,.92.38.38-.93c1.45-3.55,3.08-7.09,4.83-10.51l.45-.89-.89-.45-7.12-3.65-.89-.45Z"/><path d="M59.32,121.78,67,124.05c-1.1,3.71-2,7.51-2.83,11.31l-7.83-1.61c.82-4,1.83-8,3-12m-.67-1.24-.28,1c-1.17,4-2.18,8-3,12.05l-.21,1,1,.2L64,136.34l1,.2.2-1c.78-3.78,1.72-7.56,2.81-11.22l.28-1-1-.29-7.67-2.27-1-.28Z"/><path d="M54.16,148l8,.82c-.39,3.84-.63,7.75-.7,11.63l-8-.14c.07-4.11.32-8.25.74-12.31m-.9-1.09-.1,1c-.42,4.09-.67,8.25-.74,12.39l0,1,1,0,8,.14,1,0,0-1c.07-3.86.31-7.75.7-11.55l.1-1-1-.1-8-.82-1-.1Z"/><path d="M56.13,134.76,64,136.31c-.74,3.78-1.34,7.66-1.76,11.52l-8-.88c.45-4.09,1.08-8.19,1.87-12.19m-.78-1.18-.2,1c-.79,4-1.43,8.15-1.88,12.27l-.11,1,1,.11,8,.88,1,.11.11-1c.42-3.84,1-7.69,1.75-11.44l.2-1-1-.19-7.85-1.55-1-.2Z"/><path d="M147.18,27.33,150,34.82c-3.62,1.36-7.22,2.9-10.72,4.58l-3.45-7.22c3.7-1.77,7.52-3.4,11.35-4.85m.58-1.29-.94.36c-3.86,1.46-7.71,3.1-11.43,4.88l-.9.43.43.9,3.45,7.22.44.9.9-.43c3.47-1.66,7-3.19,10.64-4.54l.94-.36-.36-.93L148.11,27l-.35-.94Z"/><path d="M186.18,18.56l.66,8c-3.86.32-7.75.81-11.56,1.46l-1.34-7.89c4-.68,8.15-1.2,12.24-1.54m.91-1.08-1,.08c-4.1.34-8.25.86-12.32,1.55l-1,.17.17,1,1.33,7.89.17,1,1-.17c3.78-.64,7.64-1.12,11.48-1.44l1-.08-.09-1-.66-8-.08-1Z"/><path d="M172.93,20.27l1.39,7.88c-3.81.67-7.64,1.52-11.38,2.52l-2.06-7.73c4-1.06,8-2,12.05-2.67m.81-1.16-1,.18c-4.06.72-8.14,1.62-12.12,2.68l-1,.26.26,1L162,30.92l.26,1,1-.26c3.71-1,7.51-1.83,11.29-2.49l1-.18-.18-1-1.39-7.88-.17-1Z"/><path d="M134.9,32.63l3.5,7.19c-3.48,1.69-6.93,3.56-10.25,5.55l-4.1-6.87c3.51-2.1,7.16-4.08,10.85-5.87m.46-1.34-.9.44c-3.71,1.8-7.39,3.79-10.93,5.91l-.86.52.52.85,4.1,6.87.52.86.85-.52c3.3-2,6.72-3.82,10.18-5.5l.9-.44-.44-.9-3.5-7.19-.44-.9Z"/><path d="M112.07,46.49l4.77,6.43c-3.11,2.3-6.16,4.77-9.07,7.33l-5.29-6c3.08-2.71,6.3-5.32,9.59-7.76m.21-1.4-.8.6c-3.32,2.45-6.56,5.08-9.66,7.81l-.75.66.66.75,5.29,6,.67.75.75-.66c2.88-2.55,5.91-5,9-7.28l.81-.6-.6-.8-4.77-6.43-.59-.8Z"/><path d="M123.16,39l4.16,6.84c-3.31,2-6.57,4.18-9.7,6.47l-4.72-6.46c3.31-2.42,6.77-4.72,10.26-6.85m.34-1.37-.86.52c-3.52,2.14-7,4.46-10.33,6.89l-.81.59.59.81,4.72,6.46.59.81.81-.59c3.1-2.27,6.34-4.43,9.62-6.43l.86-.51-.52-.86L124,38.51l-.52-.85Z"/><path d="M105.92,264c2.86,2.62,5.86,5.14,8.93,7.5L110,277.83c-3.25-2.5-6.43-5.17-9.45-7.93l5.4-5.91m-.06-1.41-.68.74-5.39,5.9-.68.74.74.68c3,2.78,6.24,5.46,9.51,8l.79.61.61-.79,4.88-6.34.61-.79-.79-.61c-3-2.35-6-4.86-8.86-7.44l-.74-.68Z"/><path d="M335.16,164.71l8,.1c-.05,4.1-.28,8.25-.67,12.31l-8-.78c.37-3.83.58-7.75.63-11.63m-1-1,0,1c-.05,3.87-.26,7.75-.63,11.56l-.09,1,1,.1,8,.77,1,.1.1-1c.39-4.09.62-8.26.67-12.39l0-1h-1l-8-.1-1,0Z"/><path d="M97,255.06c2.6,2.86,5.36,5.65,8.2,8.28l-5.44,5.86c-3-2.78-5.92-5.73-8.68-8.76L97,255.06m.06-1.42-.74.68-5.91,5.38-.74.68.67.73c2.77,3.05,5.71,6,8.74,8.83l.73.68.68-.74,5.44-5.86.68-.73-.73-.68c-2.81-2.61-5.55-5.38-8.14-8.23l-.68-.74Z"/><path d="M148.55,290.53c3.61,1.41,7.31,2.68,11,3.77L157.31,302c-3.92-1.15-7.85-2.49-11.67-4l2.91-7.45m-.57-1.29-.37.93-2.9,7.45-.37.93.93.37c3.85,1.5,7.81,2.85,11.76,4l1,.28.28-1,2.26-7.67.28-1-1-.28c-3.68-1.08-7.36-2.34-10.94-3.74l-.93-.36Z"/><path d="M137,285.41c3.45,1.73,7,3.33,10.62,4.77l-3,7.43c-3.8-1.52-7.59-3.22-11.25-5.05l3.59-7.15m-.45-1.35-.45.9-3.58,7.15-.45.89.9.45c3.67,1.85,7.48,3.56,11.32,5.09l.93.37.37-.93,3-7.43.37-.93-.93-.37c-3.56-1.43-7.11-3-10.54-4.74l-.9-.45Z"/><path d="M160.5,294.57c3.72,1.06,7.53,2,11.33,2.72l-1.54,7.85c-4-.78-8-1.75-12-2.88l2.2-7.69m-.68-1.24-.28,1-2.2,7.69-.28,1,1,.28c4,1.13,8,2.11,12.08,2.9l1,.2.19-1,1.54-7.86.19-1-1-.19c-3.78-.74-7.56-1.65-11.24-2.7l-1-.28Z"/><path d="M89,245.34c2.33,3.08,4.82,6.11,7.4,9l-5.95,5.35c-2.74-3.05-5.37-6.26-7.84-9.53L89,245.34m.19-1.4-.8.6L82,249.36l-.8.6.6.8c2.48,3.29,5.14,6.51,7.9,9.58l.66.75.75-.67,6-5.34.75-.67-.67-.74c-2.57-2.86-5-5.87-7.36-8.94l-.6-.79Z"/><path d="M115.62,272.08c3.08,2.34,6.3,4.57,9.57,6.64l-4.27,6.76c-3.47-2.19-6.88-4.55-10.14-7l4.84-6.37m-.19-1.4-.61.8L110,277.85l-.61.79.8.61c3.28,2.49,6.71,4.87,10.2,7.08l.85.53.53-.84,4.28-6.76.53-.85-.84-.53c-3.25-2.06-6.45-4.28-9.51-6.6l-.79-.6Z"/><path d="M63.69,188.07c.71,3.81,1.58,7.63,2.61,11.35l-7.71,2.13c-1.09-3.94-2-8-2.77-12l7.87-1.46m.8-1.17-1,.19-7.87,1.46-1,.18.18,1c.75,4.06,1.69,8.13,2.78,12.11l.27,1,1-.27,7.72-2.12,1-.27-.27-1c-1-3.69-1.88-7.48-2.59-11.27l-.18-1Z"/><path d="M53.4,161.31l8,.08c0,.52,0,1,0,1.56,0,3.88.16,7.8.49,11.65l-8,.67c-.35-4.07-.52-8.22-.52-12.32,0-.55,0-1.1,0-1.64m-1-1v1c0,.56,0,1.11,0,1.66,0,4.13.18,8.3.52,12.4l.08,1,1-.08,8-.67,1-.09-.08-1c-.33-3.82-.49-7.71-.49-11.57,0-.51,0-1,0-1.55v-1h-1l-8-.08-1,0Z"/><path d="M75.66,223.88c1.73,3.46,3.62,6.9,5.64,10.21l-6.83,4.16c-2.14-3.5-4.14-7.14-6-10.8l7.16-3.57m.45-1.34-.89.45-7.16,3.57-.9.44.45.9c1.83,3.69,3.86,7.34,6,10.87l.53.86.85-.52,6.83-4.17.86-.52-.53-.85c-2-3.29-3.88-6.7-5.59-10.13l-.45-.9Z"/><path d="M70.57,212.33c1.39,3.61,3,7.2,4.66,10.68l-7.18,3.52c-1.8-3.69-3.47-7.49-4.95-11.31l7.47-2.89m.57-1.29-.94.36-7.46,2.88-.93.37.36.93c1.49,3.85,3.17,7.68,5,11.39l.44.89.9-.43,7.18-3.52.9-.44-.44-.9c-1.69-3.46-3.25-7-4.63-10.6l-.36-.93Z"/><path d="M66.56,200.36c1.06,3.72,2.29,7.44,3.66,11.06l-7.49,2.83c-1.45-3.83-2.75-7.77-3.86-11.71l7.69-2.18m.69-1.24-1,.28-7.7,2.18-1,.27.27,1c1.13,4,2.44,7.94,3.9,11.8l.35.93.94-.35,7.48-2.84.94-.35-.36-.93c-1.36-3.6-2.58-7.29-3.63-11l-.27-1Z"/><path d="M172.78,297.48c3.8.71,7.68,1.27,11.53,1.66l-.8,8c-4.08-.41-8.19-1-12.21-1.76l1.48-7.86m-.79-1.17-.19,1-1.48,7.86-.19,1,1,.18c4,.76,8.18,1.36,12.29,1.78l1,.1.1-1,.81-8,.1-1-1-.1c-3.83-.39-7.68-.94-11.45-1.66l-1-.18Z"/><path d="M298.4,256.31l5.85,5.46c-2.79,3-5.75,5.91-8.79,8.65l-5.36-5.93c2.87-2.6,5.66-5.35,8.3-8.18m0-1.41-.68.73c-2.62,2.81-5.39,5.54-8.24,8.12l-.75.67.68.74,5.36,5.94.67.74.74-.67c3.06-2.77,6-5.7,8.85-8.72l.69-.73-.74-.68-5.85-5.46-.73-.68Z"/><path d="M325.36,214l7.42,3c-1.52,3.79-3.23,7.58-5.08,11.23l-7.14-3.6c1.74-3.46,3.36-7,4.8-10.62m-.55-1.3-.38.93c-1.42,3.55-3,7.1-4.76,10.54l-.45.89.89.45,7.14,3.6.89.45.45-.89c1.86-3.68,3.59-7.48,5.12-11.31l.37-.93-.92-.37-7.43-3-.92-.38Z"/><path d="M313.84,236.37l6.75,4.3c-2.19,3.45-4.57,6.85-7.06,10.11l-6.36-4.85c2.35-3.08,4.6-6.3,6.67-9.56m-.3-1.38-.54.85c-2.06,3.23-4.29,6.42-6.62,9.48l-.61.8.8.6,6.36,4.86.79.6.61-.79c2.5-3.29,4.9-6.71,7.11-10.19l.53-.84-.84-.54-6.75-4.29-.84-.54Z"/><path d="M320.12,225.43l7.12,3.65c-1.87,3.65-3.93,7.25-6.1,10.72l-6.78-4.25c2.06-3.28,4-6.68,5.76-10.12m-.43-1.35-.46.89c-1.75,3.41-3.68,6.8-5.72,10.05l-.53.85.85.53,6.78,4.25.84.53.54-.85c2.18-3.49,4.25-7.12,6.14-10.79l.45-.89-.89-.45-7.11-3.66-.89-.46Z"/><path d="M334.43,177.31l8,.83c-.43,4.08-1,8.19-1.8,12.2l-7.86-1.5c.73-3.79,1.3-7.67,1.7-11.53m-.89-1.1-.1,1c-.4,3.82-1,7.67-1.69,11.44l-.19,1,1,.19,7.86,1.5,1,.19.19-1c.78-4,1.39-8.18,1.81-12.29l.11-1-1-.1-7.95-.83-1-.11Z"/><path d="M329.51,202l7.67,2.28c-1.16,3.92-2.52,7.85-4,11.66l-7.44-2.93c1.42-3.6,2.69-7.3,3.79-11m-.67-1.24-.28,1c-1.1,3.67-2.37,7.35-3.77,10.93l-.37.93.93.36,7.45,2.93.93.37.36-.93c1.52-3.85,2.88-7.8,4.05-11.75l.29-.95-1-.29-7.67-2.28-1-.28Z"/><path d="M209.54,299.39l.65,8c-3.93.32-7.93.49-11.94.49h-.37v-8h.4c3.76,0,7.55-.16,11.26-.46m.91-1.08-1,.08c-3.69.3-7.45.46-11.18.46h-1.4v10h1.37c4,0,8.07-.17,12-.49l1-.08-.08-1-.66-8-.08-1Z"/><path d="M222.06,297.79l1.38,7.88c-4,.7-8.14,1.24-12.23,1.61l-.7-8c3.86-.34,7.75-.86,11.55-1.52m.81-1.16-1,.17c-3.79.67-7.64,1.17-11.47,1.51l-1,.09.09,1,.71,8,.08,1,1-.09c4.11-.36,8.26-.91,12.31-1.62l1-.17-.18-1L223,297.62l-.17-1Z"/><path d="M234.38,295l2.1,7.72c-4,1.08-8,2-12,2.73L223,297.62c3.8-.69,7.62-1.56,11.36-2.58m.7-1.23-1,.26c-3.71,1-7.51,1.88-11.27,2.56l-1,.18.18,1,1.44,7.87.18,1,1-.18c4.05-.74,8.13-1.66,12.11-2.75l1-.26-.27-1-2.1-7.72-.26-1Z"/><path d="M246.38,291.16l2.82,7.49c-3.84,1.44-7.78,2.73-11.73,3.83l-2.16-7.7c3.73-1,7.46-2.26,11.07-3.62m.59-1.29-.94.35c-3.59,1.35-7.29,2.56-11,3.6l-1,.27.27,1,2.16,7.7.27,1,1-.27c4-1.12,7.94-2.42,11.81-3.87l.93-.35-.35-.93-2.81-7.49-.35-.94Z"/><path d="M279.57,273.11l4.76,6.43c-3.3,2.44-6.74,4.76-10.22,6.91l-4.19-6.82c3.29-2,6.54-4.22,9.65-6.52m.21-1.4-.8.59c-3.09,2.29-6.32,4.47-9.59,6.48l-.85.52.52.86,4.19,6.81.53.85.85-.52c3.51-2.16,7-4.5,10.29-6.95l.81-.6-.6-.8-4.75-6.44-.6-.8Z"/><path d="M289.37,265.14l5.33,6c-3.06,2.73-6.27,5.36-9.55,7.82l-4.8-6.4c3.1-2.32,6.13-4.81,9-7.39m.08-1.41-.74.66c-2.87,2.56-5.88,5-9,7.34l-.8.6.6.8,4.8,6.4.6.8.8-.6c3.3-2.47,6.53-5.12,9.61-7.87l.75-.67-.66-.74-5.33-6-.67-.75Z"/><path d="M269.08,280.14l4.15,6.84c-3.51,2.13-7.15,4.12-10.82,5.94l-3.55-7.17c3.47-1.72,6.91-3.6,10.22-5.61m.34-1.37-.85.51c-3.3,2-6.71,3.87-10.15,5.57l-.9.44.45.9,3.54,7.17.45.9.89-.45c3.7-1.82,7.36-3.83,10.9-6l.85-.52-.52-.86-4.14-6.84-.52-.85Z"/><text class="cls-1" transform="translate(320.22 71.44)">2010</text><text class="cls-1" transform="translate(260.79 28.84)">2015</text><text class="cls-1" transform="translate(347.72 135.36)">2005</text><text class="cls-1" transform="translate(347.72 206.33)">2000</text><text class="cls-1" transform="translate(315.24 273.11)">1995</text><text class="cls-1" transform="translate(24.27 262.13)">1985</text><text class="cls-1" transform="translate(72.5 310.41)">1980</text><text class="cls-1" transform="translate(0 194.81)">1975</text><text class="cls-1" transform="translate(5 119.36)">1970</text><text class="cls-1" transform="translate(45.49 59.98)">1965</text><text class="cls-1" transform="translate(105.3 20.93)">&lt;1960</text><text class="cls-1" transform="translate(263.84 316.03)">1990</text><path class="cls-2" d="M271,238.09a104.15,104.15,0,0,0-70.28-181"/><polygon points="286.54 240.01 286.51 237.01 271.71 237.21 272.6 222.44 269.6 222.26 268.53 240.25 286.54 240.01"/><path class="cls-2" d="M202.06,39.34v37.9"/><text class="cls-1" transform="translate(182.1 98)">n<tspan class="cls-3" x="13.88" y="0">o</tspan><tspan x="27.42" y="0">w</tspan></text></g></g></svg>